<?xml version="1.0" encoding="UTF-8"?>
<svg width="20px" height="20px" viewBox="0 0 20 20" version="1.1" xmlns="http://www.w3.org/2000/svg" xmlns:xlink="http://www.w3.org/1999/xlink">
    <!-- Generator: Sketch 61 (89581) - https://sketch.com -->
    <title>编组 50</title>
    <desc>Created with Sketch.</desc>
    <g id="主页" stroke="none" stroke-width="1" fill="none" fill-rule="evenodd">
        <g id="F-1.0首页" transform="translate(-1669.000000, -29.000000)">
            <g id="编组-23备份-3">
                <g id="编组-50" transform="translate(1669.000000, 29.000000)">
                    <g id="编组-49" transform="translate(1.000000, 0.000000)">
                        <g id="编组" transform="translate(2.000000, 4.000000)">
                            <polygon id="Fill-1" points="0 14 14 14 14 0 0 0"></polygon>
                            <g transform="translate(3.000000, 0.000000)" fill="#FFFFFF">
                                <path d="M7.11990909,3.101875 L4.05324242,0.347113095 C3.97112121,0.27360119 3.86142424,0.233422619 3.75990909,0.238482143 C3.65051515,0.236696429 3.54384848,0.27389881 3.46172727,0.347113095 L0.395060606,3.101875 L0.381424242,3.11467262 C0.216878788,3.27627976 0.216878788,3.53967262 0.381424242,3.70127976 L0.861424242,4.1721131 C0.944454545,4.24681548 1.05081818,4.28758929 1.16536364,4.28044643 C1.27809091,4.2753869 1.38172727,4.22776786 1.45778788,4.14622024 L3.19839394,2.27776786 L3.04081818,7.04324405 C3.04081818,7.27181548 3.23021212,7.45782738 3.46324242,7.45782738 L4.14536364,7.45782738 C4.37809091,7.4503869 4.56112121,7.258125 4.55354545,7.02955357 L4.39990909,2.36616071 L6.06990909,4.15931548 C6.22930303,4.31616071 6.50778788,4.31616071 6.66718182,4.15931548 L7.14657576,3.6878869 C7.22263636,3.60633929 7.2620303,3.50008929 7.25687879,3.38967262 C7.2520303,3.27895833 7.20293939,3.17657738 7.11990909,3.101875" id="Fill-4" transform="translate(3.757671, 3.847942) rotate(-180.000000) translate(-3.757671, -3.847942) "></path>
                                <path d="M6.78787879,9.70047619 L0.727272727,9.70047619 C0.392727273,9.70047619 0.121212121,9.43380952 0.121212121,9.1052381 C0.121212121,8.77666667 0.392727273,8.51 0.727272727,8.51 L6.78787879,8.51 C7.12242424,8.51 7.39393939,8.77666667 7.39393939,9.1052381 C7.39393939,9.43380952 7.12242424,9.70047619 6.78787879,9.70047619" id="Fill-6"></path>
                            </g>
                        </g>
                        <rect id="矩形" stroke="#FFFFFF" stroke-width="1.5" x="0.75" y="0.75" width="16.5" height="18.5" rx="3"></rect>
                    </g>
                </g>
            </g>
        </g>
    </g>
</svg>