<?xml version="1.0" encoding="UTF-8"?>
<svg width="16px" height="16px" viewBox="0 0 16 16" version="1.1" xmlns="http://www.w3.org/2000/svg" xmlns:xlink="http://www.w3.org/1999/xlink">
    <!-- Generator: Sketch 61 (89581) - https://sketch.com -->
    <title>locales备份 4</title>
    <desc>Created with Sketch.</desc>
    <g id="主页" stroke="none" stroke-width="1" fill="none" fill-rule="evenodd">
        <g id="F-1.0首页" transform="translate(-1718.000000, -32.000000)" fill="#FFFFFF" fill-rule="nonzero">
            <g id="编组-23备份-3">
                <g id="编组-12">
                    <g id="编组-38">
                        <g id="编组-37">
                            <g id="编组-9" transform="translate(1386.000000, 19.000000)">
                                <g id="编组-3" transform="translate(332.000000, 8.000000)">
                                    <g id="locales备份-4" transform="translate(0.000000, 5.000000)">
                                        <g id="locales备份-3">
                                            <g id="locales备份">
                                                <path d="M7.98969072,0 C3.55670103,0 0,3.60824742 0,7.98969072 C0,12.371134 3.55670103,15.9793814 7.98969072,15.9793814 C12.371134,15.9793814 15.9793814,12.4226804 15.9793814,7.98969072 C15.9793814,3.60824742 12.371134,0 7.98969072,0 Z M5.92783505,1.59793814 C5.15463918,2.93814433 4.69072165,5 4.63917526,7.31958763 L1.34020619,7.31958763 C1.59793814,4.69072165 3.40206186,2.42268041 5.92783505,1.59793814 Z M5.92783505,7.37113402 C6.08247423,3.71134021 7.21649485,1.28865979 7.98969072,1.28865979 C8.7628866,1.28865979 9.89690722,3.71134021 10.0515464,7.31958763 L5.92783505,7.31958763 L5.92783505,7.37113402 Z M1.34020619,8.65979381 L4.69072165,8.65979381 C4.74226804,10.9793814 5.25773196,13.0412371 5.97938144,14.3814433 C3.40206186,13.556701 1.59793814,11.2886598 1.34020619,8.65979381 Z M10.0515464,8.65979381 C9.89690722,12.2680412 8.71134021,14.6907216 7.98969072,14.6907216 C7.21649485,14.6907216 6.08247423,12.2680412 5.92783505,8.65979381 L10.0515464,8.65979381 Z M14.6391753,8.65979381 C14.3814433,11.3402062 12.5257732,13.556701 10,14.3814433 C10.7731959,13.0412371 11.2371134,10.9793814 11.2886598,8.65979381 L14.6391753,8.65979381 Z M14.6391753,7.37113402 L11.2886598,7.37113402 C11.2371134,5.05154639 10.7216495,2.98969072 10,1.64948454 C12.5257732,2.42268041 14.3814433,4.69072165 14.6391753,7.37113402 Z" id="形状"></path>
                                            </g>
                                        </g>
                                    </g>
                                </g>
                            </g>
                        </g>
                    </g>
                </g>
            </g>
        </g>
    </g>
</svg>