<?xml version="1.0" encoding="UTF-8"?>
<svg width="152px" height="36px" viewBox="0 0 152 36" version="1.1" xmlns="http://www.w3.org/2000/svg" xmlns:xlink="http://www.w3.org/1999/xlink">
    <!-- Generator: Sketch 61 (89581) - https://sketch.com -->
    <title>logo</title>
    <desc>Created with Sketch.</desc>
    <g id="logo" stroke="none" stroke-width="1" fill="none" fill-rule="evenodd">
        <g id="编组-68">
            <g id="编组">
                <polygon id="Fill-1" points="0.001 36 152 36 152 0 0.001 0"></polygon>
                <polygon id="Fill-2" fill="#FFFFFF" points="1.735 34.38 8.345 34.38 8.345 15.791 1.735 15.791"></polygon>
                <g transform="translate(0.000000, 1.000000)">
                    <path d="M29.2622,22.2406 L29.2622,33.3806 L22.9692,33.3806 L22.9692,23.1106 C22.9692,20.9836 22.1702,19.9286 20.5862,19.9286 C18.6242,19.9286 17.4952,21.2996 17.4952,23.6246 L17.4952,33.3806 L11.2022,33.3806 L11.2022,15.1116 L15.6172,15.1116 L16.4822,16.9956 C17.8422,15.4796 19.8702,14.5706 22.2332,14.5706 C26.4762,14.5706 29.2622,17.5866 29.2622,22.2406" id="Fill-3" fill="#FFFFFF"></path>
                    <polygon id="Fill-5" fill="#FFFFFF" points="49.6831 15.1117 42.3381 33.3807 36.6381 33.3807 29.1961 15.1117 36.0901 15.1117 39.5431 25.9307 42.9571 15.1117"></polygon>
                    <path d="M54.9448,22.2543 L62.3308,22.2543 C61.7788,20.4293 60.4628,19.4433 58.5628,19.4433 C56.7288,19.4433 55.4548,20.4403 54.9448,22.2543 L54.9448,22.2543 Z M68.5298,24.0733 C68.5298,24.6243 68.4818,25.1743 68.3998,25.7393 L54.8348,25.7393 C55.2458,27.8353 56.5768,28.9183 58.5638,28.9183 C60.0338,28.9183 61.2608,28.2753 61.8668,27.2053 L68.1288,27.2053 C66.8428,31.3743 63.1468,33.9803 58.5638,33.9803 C52.8628,33.9803 48.6398,29.8143 48.6398,24.2323 C48.6398,18.6313 52.8298,14.5133 58.5638,14.5133 C64.4528,14.5133 68.5298,18.7143 68.5298,24.0723 L68.5298,24.0733 Z" id="Fill-7" fill="#FFFFFF"></path>
                    <path d="M77.2554,33.9789 C72.2764,33.9789 69.2494,31.3489 69.1924,27.3909 L75.2494,27.3909 C75.2494,28.7269 76.1794,29.3419 77.3724,29.3419 C78.2934,29.3419 79.1654,28.8729 79.1654,27.9279 C79.1654,26.8749 77.7824,26.5739 76.0274,26.2839 C73.1944,25.8249 69.4404,24.9699 69.4404,20.5389 C69.4404,16.8759 72.5604,14.5119 77.2404,14.5119 C81.8934,14.5119 84.9084,16.9879 84.9804,20.6889 L79.0874,20.6889 C79.0874,19.5229 78.3034,18.9799 77.1624,18.9799 C76.1534,18.9799 75.4764,19.4799 75.4764,20.3269 C75.4764,21.3669 76.8734,21.6079 78.6094,21.9169 C81.4954,22.4299 85.3324,23.0299 85.3324,27.6639 C85.3324,31.4809 82.1094,33.9799 77.2544,33.9799 L77.2554,33.9789 Z" id="Fill-9" fill="#FFFFFF"></path>
                    <path d="M99.2417,27.8696 L99.2417,33.3806 L94.9117,33.3806 C90.8717,33.3806 88.4167,30.9106 88.4167,26.8506 L88.4167,19.9576 L85.0727,19.9576 L85.0727,18.4866 L93.2577,9.7696 L94.5507,9.7696 L94.5507,15.1116 L99.1397,15.1116 L99.1397,19.9576 L94.7097,19.9576 L94.7097,25.7716 C94.7097,27.0796 95.4987,27.8696 96.8267,27.8696 L99.2417,27.8696 Z" id="Fill-11" fill="#FFFFFF"></path>
                    <path d="M133.8677,15.0248 L133.8677,20.7828 L131.4247,20.7828 C129.1967,20.7828 128.2637,21.7598 128.2637,24.0898 L128.2637,33.3798 L121.9717,33.3798 L121.9717,15.1118 L126.1867,15.1118 L127.1687,17.1388 C128.4567,15.6488 130.0267,15.0248 132.2007,15.0248 L133.8677,15.0248 Z" id="Fill-13" fill="#FFFFFF"></path>
                    <path d="M142.0454,33.9789 C137.0664,33.9789 134.0394,31.3489 133.9824,27.3909 L140.0384,27.3909 C140.0384,28.7269 140.9694,29.3419 142.1614,29.3419 C143.0824,29.3419 143.9554,28.8729 143.9554,27.9279 C143.9554,26.8749 142.5724,26.5739 140.8164,26.2839 C137.9834,25.8249 134.2294,24.9699 134.2294,20.5389 C134.2294,16.8759 137.3494,14.5119 142.0304,14.5119 C146.6834,14.5119 149.6974,16.9879 149.7704,20.6889 L143.8764,20.6889 C143.8764,19.5229 143.0924,18.9799 141.9524,18.9799 C140.9434,18.9799 140.2664,19.4799 140.2664,20.3269 C140.2664,21.3669 141.6634,21.6079 143.3994,21.9169 C146.2844,22.4299 150.1214,23.0299 150.1214,27.6639 C150.1214,31.4809 146.8994,33.9799 142.0444,33.9799 L142.0454,33.9789 Z" id="Fill-15" fill="#FFFFFF"></path>
                    <path d="M150.1216,15.974 C149.5986,15.974 149.1726,15.548 149.1726,15.025 C149.1726,14.501 149.5986,14.075 150.1216,14.075 C150.6446,14.075 151.0706,14.501 151.0706,15.025 C151.0706,15.548 150.6446,15.974 150.1216,15.974 M150.1216,13.825 C149.4606,13.825 148.9216,14.363 148.9216,15.025 C148.9216,15.686 149.4606,16.225 150.1216,16.225 C150.7836,16.225 151.3216,15.686 151.3216,15.025 C151.3216,14.363 150.7836,13.825 150.1216,13.825" id="Fill-17" fill="#FFFFFF"></path>
                    <path d="M150.4272,14.7026 C150.4272,14.7576 150.4272,14.9226 150.0812,14.9226 L149.8542,14.9226 L149.8542,14.5016 L150.0812,14.5016 C150.3852,14.5016 150.4272,14.5986 150.4272,14.7026 L150.4272,14.7026 Z M150.3632,15.0986 C150.5772,15.0386 150.6952,14.8996 150.6952,14.7026 C150.6952,14.5156 150.5942,14.2946 150.1122,14.2946 L149.5832,14.2946 L149.5832,15.6906 L149.8542,15.6906 L149.8542,15.1296 L150.0822,15.1296 L150.4632,15.6906 L150.7752,15.6906 L150.3632,15.0986 Z" id="Fill-19" fill="#FFFFFF"></path>
                    <path d="M5.0405,8.7446 C3.4255,8.7446 2.0315,7.8566 1.2765,6.5536 C0.9065,7.1936 0.6785,7.9296 0.6785,8.7236 C0.6785,11.1326 2.6315,13.0856 5.0405,13.0856 C7.4485,13.0856 9.4015,11.1326 9.4015,8.7236 C9.4015,7.9296 9.1735,7.1936 8.8025,6.5536 C8.0485,7.8566 6.6545,8.7446 5.0405,8.7446" id="Fill-21" fill="#FFFFFF"></path>
                    <path d="M5.0405,4.3608 C6.6545,4.3608 8.0485,5.2488 8.8025,6.5528 C9.1735,5.9118 9.4015,5.1758 9.4015,4.3818 C9.4015,1.9728 7.4485,0.0198 5.0405,0.0198 C2.6315,0.0198 0.6785,1.9728 0.6785,4.3818 C0.6785,5.1758 0.9065,5.9118 1.2765,6.5528 C2.0315,5.2488 3.4255,4.3608 5.0405,4.3608" id="Fill-23" fill="#00FFBC"></path>
                    <path d="M5.0405,8.7446 C6.6545,8.7446 8.0485,7.8566 8.8025,6.5536 C8.0485,5.2486 6.6545,4.3606 5.0405,4.3606 C3.4255,4.3606 2.0315,5.2486 1.2765,6.5536 C2.0315,7.8566 3.4255,8.7446 5.0405,8.7446" id="Fill-25" fill="#00CFAC"></path>
                    <path d="M114.1147,24.2465 C114.1147,26.5135 112.2767,28.3505 110.0107,28.3505 C107.7437,28.3505 105.9057,26.5135 105.9057,24.2465 C105.9057,21.9785 107.7437,20.1425 110.0107,20.1425 C112.2767,20.1425 114.1147,21.9785 114.1147,24.2465" id="Fill-27" fill="#00FFBC"></path>
                    <path d="M110.0103,28.351 C111.4473,28.351 112.7093,27.612 113.4433,26.494 C112.7093,25.376 111.4473,24.637 110.0103,24.637 C108.5733,24.637 107.3113,25.376 106.5773,26.494 C107.3113,27.612 108.5733,28.351 110.0103,28.351" id="Fill-29" fill="#00CFAC"></path>
                    <path d="M110.0103,28.351 C109.3013,28.351 108.6443,28.155 108.0623,27.838 C107.9533,27.78 107.8383,27.73 107.7373,27.662 C106.6343,26.926 105.9063,25.672 105.9063,24.247 C105.9063,22.82 106.6343,21.566 107.7383,20.83 C107.8303,20.768 107.9363,20.723 108.0343,20.669 C108.6233,20.343 109.2903,20.142 110.0103,20.142 C112.2773,20.142 114.1143,21.979 114.1143,24.247 C114.1143,26.513 112.2773,28.351 110.0103,28.351 M110.0053,14.513 C104.0483,14.513 99.7623,18.583 99.7623,24.246 C99.7623,29.89 104.0483,33.98 110.0053,33.98 C115.9423,33.98 120.2473,29.89 120.2473,24.246 C120.2473,18.583 115.9423,14.513 110.0053,14.513" id="Fill-31" fill="#FFFFFF"></path>
                </g>
            </g>
        </g>
    </g>
</svg>